<?xml version="1.0" encoding="UTF-8"?>
<svg id="Ebene_1" data-name="Ebene 1" xmlns="http://www.w3.org/2000/svg" viewBox="0 0 1178.5 179.3">
  <defs>
    <style>
      .cls-1 {
        fill: #fff;
      }

      .cls-2 {
        fill: red;
      }

      .cls-3 {
        fill: none;
        stroke: red;
        stroke-miterlimit: 10;
        stroke-width: 6px;
      }
    </style>
  </defs>
  <g>
    <path class="cls-1" d="M126.18,48.48c5.44,2.88,9.74,7.21,12.9,12.98,3.15,5.77,4.74,12.79,4.74,21.06v52.73h-14.69v-50.61c0-8.92-2.2-15.75-6.61-20.49-4.41-4.73-10.37-7.1-17.88-7.1s-13.88,2.48-18.45,7.43c-4.57,4.95-6.86,12.11-6.86,21.46v49.3h-14.69v-50.61c0-8.92-2.2-15.75-6.61-20.49-4.41-4.73-10.37-7.1-17.88-7.1s-13.88,2.48-18.45,7.43c-4.57,4.95-6.86,12.11-6.86,21.46v49.3H0V45.78h14.85v12.89c2.94-4.68,6.88-8.27,11.83-10.77,4.95-2.5,10.42-3.75,16.41-3.75,7.51,0,14.15,1.69,19.92,5.06,5.77,3.37,10.07,8.32,12.9,14.85,2.5-6.31,6.64-11.21,12.41-14.69,5.77-3.48,12.19-5.22,19.26-5.22s13.17,1.44,18.61,4.33Z"/>
    <path class="cls-1" d="M168.14,66.11c3.7-6.91,8.79-12.27,15.26-16.08,6.47-3.81,13.69-5.71,21.63-5.71s14.64,1.69,20.41,5.06c5.77,3.37,10.06,7.62,12.9,12.73v-16.32h15.02v89.46h-15.02v-16.65c-2.94,5.22-7.32,9.55-13.14,12.98-5.82,3.43-12.6,5.14-20.32,5.14s-15.13-1.96-21.55-5.88c-6.42-3.92-11.48-9.41-15.18-16.49-3.7-7.07-5.55-15.13-5.55-24.16s1.85-17.17,5.55-24.08ZM234.25,72.72c-2.72-5-6.39-8.84-11.02-11.51-4.63-2.67-9.71-4-15.26-4s-10.61,1.3-15.18,3.92c-4.57,2.61-8.22,6.42-10.94,11.42-2.72,5.01-4.08,10.89-4.08,17.63s1.36,12.81,4.08,17.88c2.72,5.06,6.37,8.92,10.94,11.59,4.57,2.67,9.63,4,15.18,4s10.64-1.33,15.26-4c4.62-2.67,8.3-6.53,11.02-11.59,2.72-5.06,4.08-10.96,4.08-17.71s-1.36-12.62-4.08-17.63Z"/>
    <path class="cls-1" d="M404.67,48.48c5.44,2.88,9.74,7.21,12.9,12.98,3.15,5.77,4.74,12.79,4.74,21.06v52.73h-14.69v-50.61c0-8.92-2.2-15.75-6.61-20.49s-10.37-7.1-17.88-7.1-13.88,2.48-18.45,7.43c-4.57,4.95-6.86,12.11-6.86,21.46v49.3h-14.69v-50.61c0-8.92-2.2-15.75-6.61-20.49-4.41-4.73-10.37-7.1-17.88-7.1s-13.88,2.48-18.45,7.43c-4.57,4.95-6.86,12.11-6.86,21.46v49.3h-14.85V45.78h14.85v12.89c2.94-4.68,6.88-8.27,11.83-10.77,4.95-2.5,10.42-3.75,16.41-3.75,7.51,0,14.15,1.69,19.92,5.06s10.07,8.32,12.9,14.85c2.5-6.31,6.64-11.21,12.41-14.69,5.77-3.48,12.19-5.22,19.26-5.22s13.17,1.44,18.61,4.33Z"/>
    <path class="cls-1" d="M447.12,28.32c-1.96-1.96-2.94-4.35-2.94-7.18s.98-5.22,2.94-7.18c1.96-1.96,4.35-2.94,7.18-2.94s5.03.98,6.94,2.94c1.9,1.96,2.86,4.35,2.86,7.18s-.95,5.22-2.86,7.18c-1.9,1.96-4.22,2.94-6.94,2.94s-5.22-.98-7.18-2.94ZM461.48,45.78v89.46h-14.85V45.78h14.85Z"/>
    <path class="cls-1" d="M486.78,66.11c3.7-6.91,8.84-12.27,15.42-16.08,6.58-3.81,14.12-5.71,22.61-5.71,10.99,0,20.05,2.67,27.18,8,7.13,5.33,11.84,12.73,14.12,22.2h-16c-1.53-5.44-4.49-9.74-8.9-12.9-4.41-3.15-9.88-4.74-16.41-4.74-8.49,0-15.34,2.91-20.57,8.73-5.22,5.82-7.84,14.07-7.84,24.73s2.61,19.1,7.84,24.98,12.08,8.81,20.57,8.81c6.53,0,11.97-1.52,16.32-4.57,4.35-3.05,7.35-7.4,8.98-13.06h16c-2.39,9.14-7.18,16.46-14.36,21.96-7.18,5.5-16.16,8.24-26.94,8.24-8.49,0-16.02-1.9-22.61-5.71-6.58-3.81-11.73-9.19-15.42-16.16-3.7-6.96-5.55-15.13-5.55-24.49s1.85-17.33,5.55-24.24Z"/>
    <path class="cls-1" d="M599.26,132.71c-5.88-2.66-10.53-6.28-13.96-10.85-3.43-4.57-5.31-9.63-5.63-15.18h23.02c.43,3.48,2.15,6.37,5.14,8.65,2.99,2.28,6.72,3.43,11.18,3.43s7.75-.87,10.2-2.61c2.45-1.74,3.67-3.97,3.67-6.69,0-2.94-1.5-5.14-4.49-6.61-3-1.47-7.75-3.08-14.28-4.82-6.75-1.63-12.27-3.32-16.57-5.06-4.3-1.74-8-4.41-11.1-8-3.1-3.59-4.65-8.43-4.65-14.53,0-5,1.44-9.57,4.33-13.71,2.88-4.13,7.02-7.4,12.41-9.79,5.39-2.39,11.73-3.59,19.02-3.59,10.78,0,19.37,2.69,25.79,8.08,6.42,5.39,9.96,12.65,10.61,21.79h-21.87c-.33-3.59-1.82-6.45-4.49-8.57-2.67-2.12-6.23-3.18-10.69-3.18-4.14,0-7.32.76-9.55,2.28-2.23,1.53-3.35,3.65-3.35,6.37,0,3.05,1.52,5.36,4.57,6.94,3.04,1.58,7.78,3.18,14.2,4.82,6.53,1.63,11.92,3.32,16.16,5.06,4.24,1.74,7.92,4.43,11.02,8.08,3.1,3.65,4.71,8.46,4.81,14.45,0,5.22-1.44,9.9-4.33,14.04-2.89,4.14-7.02,7.37-12.41,9.71-5.39,2.34-11.67,3.51-18.85,3.51s-14.04-1.33-19.92-4Z"/>
    <path class="cls-1" d="M700.14,63.58v43.75c0,3.05.73,5.25,2.2,6.61,1.47,1.36,3.94,2.04,7.43,2.04h10.61v19.26h-14.36c-19.26,0-28.89-9.36-28.89-28.08v-43.58h-10.77v-18.77h10.77v-22.36h23.02v22.36h20.24v18.77h-20.24Z"/>
    <path class="cls-1" d="M822.24,44.8v90.44h-23.02v-11.43c-2.94,3.92-6.77,6.99-11.51,9.22-4.74,2.23-9.88,3.35-15.43,3.35-7.08,0-13.33-1.49-18.77-4.49-5.44-2.99-9.71-7.4-12.81-13.22-3.1-5.82-4.65-12.76-4.65-20.81v-53.05h22.85v49.79c0,7.18,1.8,12.71,5.39,16.57,3.59,3.86,8.49,5.8,14.69,5.8s11.26-1.93,14.85-5.8c3.59-3.86,5.39-9.39,5.39-16.57v-49.79h23.02Z"/>
    <path class="cls-1" d="M844.36,65.37c3.64-7.07,8.62-12.51,14.94-16.32,6.31-3.81,13.33-5.71,21.06-5.71,5.88,0,11.48,1.28,16.81,3.84,5.33,2.56,9.57,5.96,12.73,10.2V14.44h23.18v120.8h-23.18v-13.38c-2.83,4.46-6.8,8.05-11.92,10.77-5.12,2.72-11.05,4.08-17.79,4.08-7.62,0-14.59-1.96-20.89-5.88-6.31-3.92-11.29-9.44-14.94-16.57-3.65-7.13-5.47-15.32-5.47-24.57s1.82-17.25,5.47-24.32ZM906.8,75.74c-2.18-3.97-5.12-7.02-8.82-9.14-3.7-2.12-7.67-3.18-11.92-3.18s-8.16,1.04-11.75,3.1-6.5,5.09-8.73,9.06c-2.23,3.97-3.35,8.68-3.35,14.12s1.11,10.2,3.35,14.28c2.23,4.08,5.17,7.21,8.81,9.39,3.65,2.18,7.53,3.27,11.67,3.27s8.22-1.06,11.92-3.18c3.7-2.12,6.64-5.17,8.82-9.14,2.18-3.97,3.26-8.74,3.26-14.28s-1.09-10.31-3.26-14.28Z"/>
    <path class="cls-1" d="M956.99,30.19c-2.67-2.56-4-5.74-4-9.55s1.33-6.99,4-9.55c2.66-2.56,6.01-3.84,10.04-3.84s7.37,1.28,10.04,3.84c2.67,2.56,4,5.74,4,9.55s-1.33,7-4,9.55c-2.67,2.56-6.01,3.84-10.04,3.84s-7.37-1.28-10.04-3.84ZM978.3,44.8v90.44h-22.85V44.8h22.85Z"/>
    <path class="cls-1" d="M1123,132.71c-5.88-2.66-10.53-6.28-13.96-10.85-3.43-4.57-5.31-9.63-5.63-15.18h23.02c.43,3.48,2.15,6.37,5.14,8.65,2.99,2.28,6.72,3.43,11.18,3.43s7.75-.87,10.2-2.61c2.45-1.74,3.67-3.97,3.67-6.69,0-2.94-1.5-5.14-4.49-6.61-3-1.47-7.75-3.08-14.28-4.82-6.75-1.63-12.27-3.32-16.57-5.06-4.3-1.74-8-4.41-11.1-8-3.1-3.59-4.65-8.43-4.65-14.53,0-5,1.44-9.57,4.33-13.71,2.88-4.13,7.02-7.4,12.41-9.79,5.39-2.39,11.73-3.59,19.02-3.59,10.78,0,19.37,2.69,25.79,8.08,6.42,5.39,9.96,12.65,10.61,21.79h-21.87c-.33-3.59-1.82-6.45-4.49-8.57-2.67-2.12-6.23-3.18-10.69-3.18-4.14,0-7.32.76-9.55,2.28-2.23,1.53-3.35,3.65-3.35,6.37,0,3.05,1.52,5.36,4.57,6.94,3.04,1.58,7.78,3.18,14.2,4.82,6.53,1.63,11.92,3.32,16.16,5.06,4.24,1.74,7.92,4.43,11.02,8.08,3.1,3.65,4.71,8.46,4.81,14.45,0,5.22-1.44,9.9-4.33,14.04-2.89,4.14-7.02,7.37-12.41,9.71-5.39,2.34-11.67,3.51-18.85,3.51s-14.04-1.33-19.92-4Z"/>
  </g>
  <circle class="cls-2" cx="1042.07" cy="90.8" r="46.66"/>
  <path class="cls-3" d="M1113.95,138.1c-15.57,23.05-41.94,38.2-71.85,38.2-26.92,0-50.97-12.28-66.86-31.53"/>
  <path class="cls-3" d="M993.65,17.8c13.83-9.34,30.5-14.8,48.45-14.8,29,0,54.68,14.25,70.4,36.13"/>
</svg>